<?xml version="1.0" encoding="utf-8"?>
<!-- Generator: Adobe Illustrator 24.1.0, SVG Export Plug-In . SVG Version: 6.00 Build 0)  -->
<svg version="1.1" id="Layer_1" xmlns="http://www.w3.org/2000/svg" xmlns:xlink="http://www.w3.org/1999/xlink" x="0px" y="0px"
	 viewBox="0 0 14 14" style="enable-background:new 0 0 14 14;" xml:space="preserve">
<path d="M8.41,7l5.29-5.29c0.39-0.39,0.39-1.02,0-1.41s-1.02-0.39-1.41,0L7,5.59L1.71,0.29c-0.39-0.39-1.02-0.39-1.41,0
	s-0.39,1.02,0,1.41L5.59,7l-5.29,5.29c-0.39,0.39-0.39,1.02,0,1.41C0.49,13.9,0.74,14,1,14s0.51-0.1,0.71-0.29L7,8.41l5.29,5.29
	C12.49,13.9,12.74,14,13,14s0.51-0.1,0.71-0.29c0.39-0.39,0.39-1.02,0-1.41L8.41,7z"/>
<g>
</g>
<g>
</g>
<g>
</g>
<g>
</g>
<g>
</g>
<g>
</g>
<g>
</g>
<g>
</g>
<g>
</g>
<g>
</g>
<g>
</g>
<g>
</g>
<g>
</g>
<g>
</g>
<g>
</g>
</svg>
