<?xml version="1.0" encoding="utf-8"?>
<!-- Generator: Adobe Illustrator 24.1.0, SVG Export Plug-In . SVG Version: 6.00 Build 0)  -->
<svg version="1.1" id="Layer_1" xmlns="http://www.w3.org/2000/svg" xmlns:xlink="http://www.w3.org/1999/xlink" x="0px" y="0px"
	 viewBox="0 0 22 14" style="enable-background:new 0 0 22 14;" xml:space="preserve">
<g>
	<path d="M1,2h20c0.55,0,1-0.45,1-1s-0.45-1-1-1H1C0.45,0,0,0.45,0,1S0.45,2,1,2z"/>
	<path d="M21,6H1C0.45,6,0,6.45,0,7s0.45,1,1,1h20c0.55,0,1-0.45,1-1S21.55,6,21,6z"/>
	<path d="M21,12H1c-0.55,0-1,0.45-1,1s0.45,1,1,1h20c0.55,0,1-0.45,1-1S21.55,12,21,12z"/>
</g>
<g>
</g>
<g>
</g>
<g>
</g>
<g>
</g>
<g>
</g>
<g>
</g>
<g>
</g>
<g>
</g>
<g>
</g>
<g>
</g>
<g>
</g>
<g>
</g>
<g>
</g>
<g>
</g>
<g>
</g>
</svg>
